<svg width="279" height="107" viewBox="0 0 279 107" fill="none" xmlns="http://www.w3.org/2000/svg">
<path d="M159.36 18.2766C155.715 22.0011 152.001 25.7714 149.449 30.376C147.629 33.6629 147.261 36.6734 147.083 40.3955C146.204 40.4148 145.718 38.811 145.634 38.1185C144.945 32.4847 152.21 24.1195 155.876 20.2098C156.098 19.9741 156.317 19.8611 156.23 19.4764C155.693 19.6952 154.232 19.7385 153.886 20.0174C153.744 20.1304 152.511 22.5734 152.095 23.1577C147.815 29.1858 142.815 29.7653 138.051 34.1366C136.63 35.4399 135.369 37.1687 135.528 39.1909C135.285 39.4866 134.047 37.8203 133.884 37.5895C132.699 35.8991 131.792 33.5643 132.259 31.4821C132.432 30.7054 133.113 30.3688 132.637 29.3373C132.23 28.9405 130.112 31.8668 129.89 32.2419C127.257 36.683 128.944 42.1099 133.385 44.5817L135.769 45.445C129.081 45.2574 120.382 40.7514 118.547 33.9178C118.473 33.6365 118.552 31.6311 117.96 32.2226C117.75 32.4342 117.255 34.9686 117.226 35.4591C116.819 42.3359 123.347 47.9264 129.459 49.7081C133.152 50.7829 136.253 50.5882 139.986 50.7373C140.277 50.7493 140.882 50.5569 140.824 50.9753C136.327 51.8217 132.037 51.8914 127.586 50.7397L129.929 51.8818L133.602 52.9037C133.53 53.3437 132.367 53.1634 132.042 53.1393C126.652 52.7378 120.194 50.1866 116.756 45.9307C114.474 51.5067 107.411 54.3007 101.904 51.5043C101.384 51.2398 98.4732 49.4484 98.9378 48.8185C100.021 48.4987 100.909 48.8954 102.127 48.7535C104.015 48.5323 105.952 47.407 107.845 47.1305C108.037 46.2697 106.901 46.7698 106.4 46.6496L107.601 45.6926C105.163 45.4738 100.283 47.5008 98.2204 46.0461C96.9229 45.13 98.1795 42.7495 95.3486 44.8703C93.7863 46.0389 92.5513 48.0851 93.7116 49.951L95.5652 50.9777C86.3069 51.9347 79.3765 52.8171 72.8143 59.8743C72.434 60.2831 71.5409 61.7354 71.2448 61.9133C70.4215 62.4063 68.3754 62.2355 67.4004 62.2836C67.0273 61.9037 68.2959 58.4412 68.5607 57.792C69.242 56.1353 70.5058 54.6157 71.1533 53.1682C71.317 52.8003 71.382 52.5839 70.8957 52.6681C68.8881 55.0653 66.7625 57.3664 64.7597 59.7661C63.5248 61.2449 62.6726 63.6494 60.4218 63.2454C59.8104 62.666 65.2556 54.9379 65.9681 54.0001C76.613 39.9795 93.6129 26.8246 110.68 21.9579C126.26 17.5168 143.27 17.2907 159.36 18.2862V18.2766ZM133.359 21.4024C129.24 21.2942 125.119 21.9651 121.077 22.7177C109.811 24.812 99.3085 28.7674 89.9539 35.3918C88.329 36.5435 86.3864 37.866 85.1491 39.364L84.2536 39.9122C86.9545 38.6739 89.3112 36.6902 91.8821 35.1513C100.392 30.061 110.016 26.3364 119.635 23.9199L133.359 21.4V21.4024ZM140.424 26.1273C142.557 28.349 146.678 26.0263 145.126 22.9942C143.318 19.4596 137.601 23.1866 140.424 26.1273ZM98.4563 41.1193C103.331 39.9555 108.398 40.9053 113.136 42.2013C109.664 38.9095 103.897 38.4815 99.3687 39.263C98.6706 39.3832 96.3428 39.7367 96.2754 40.5157C96.2441 40.8716 97.8136 43.7113 98.1025 43.9926C98.7885 44.6611 100.336 44.4663 101.222 44.4759L109.527 43.5214C107.573 43.2785 105.594 42.9635 103.629 42.8C101.86 42.6533 98.7187 43.5502 98.4563 41.1169V41.1193ZM114.823 39.1933L112.659 39.792L114.823 40.874V39.1933ZM110.249 48.5708C110.064 48.4217 106.451 49.7298 105.68 49.8957C104.631 50.1193 103.61 50.266 102.549 50.3718C104.708 51.8385 107.835 50.4487 109.77 49.1647C109.886 49.0878 110.714 48.9507 110.249 48.5708Z" fill="#FAFAFA"/>
<path d="M37.7937 67.3258C64.2927 63.8417 91.083 61.9301 117.844 62.0263L127.656 62.7525C128.638 64.6641 129.406 65.0776 131.436 65.6427C131.554 66.1957 131.058 66.9291 131.214 67.4148C131.335 67.7851 132.119 67.7226 131.917 68.2876C126.19 67.9294 121.094 66.6838 115.418 66.5949L103.03 68.7661C105.437 69.0883 107.939 69.0931 110.382 69.0186C112.991 68.9392 115.692 68.4632 118.326 68.5185C120.93 68.5738 123.706 69.3192 126.262 69.4875C130.039 69.7351 133.828 69.4514 137.695 69.7303C137.747 70.6585 136.289 70.6152 136.52 71.488C136.674 72.0723 137.877 72.5412 138.417 72.6157L131.325 73.1062C117.767 73.5631 104.164 71.6371 90.6352 72.6181C78.8879 73.4693 65.5589 75.8089 53.7923 74.7894C46.9196 74.1931 44.315 68.819 35.1458 70.4517C35.4491 69.0474 36.7249 69.211 37.7913 69.4899V67.3258H37.7937ZM92.1975 69.4923C90.7243 69.4947 89.2101 69.4105 87.7465 69.247C85.3826 68.9825 82.7491 68.2516 80.4911 68.0784C76.9259 67.8067 72.9684 69.7712 69.3816 70.3843C67.1405 70.7691 64.7621 70.6873 62.5884 71.2908C62.8628 71.6924 63.2456 71.6347 63.6572 71.6659C69.6946 72.118 75.135 70.3314 80.9918 70.2232C84.2247 70.1631 88.2208 70.3314 91.3622 69.9804C91.7233 69.9395 92.106 69.9299 92.1951 69.4923H92.1975ZM62.3452 71.1754C61.8421 71.137 61.3511 71.1754 60.8479 71.2427C60.6072 71.2764 59.8874 71.3125 59.9404 71.6539C60.0921 71.6852 63.1854 71.8102 62.3452 71.1778V71.1754Z" fill="#108491"/>
<path d="M234.947 72.6133C220.456 70.0164 205.909 67.6961 191.253 66.126C177.414 64.6424 163.515 63.7311 149.613 62.9953C146.286 62.8198 142.227 62.8871 139.009 62.5264C138.648 62.4856 138.268 62.4759 138.176 62.0383C145.484 60.7904 152.629 58.7802 159.745 56.7532C163.532 57.9868 167.422 59.2419 171.396 59.629L162.718 56.3998C161.818 55.7842 160.575 55.1278 160.566 53.863C161.822 54.2021 162.725 55.7049 164.186 55.2023L182.778 47.4046L192.11 54.4642C194.823 54.3199 197.604 53.31 200.297 53.4903C209.171 58.8644 218.282 63.8585 227.483 68.6555C229.967 69.9491 232.687 71.0023 234.95 72.6157L234.947 72.6133Z" fill="#FAFAFA"/>
<path d="M152.376 15.6268C148.482 15.4922 144.599 14.6049 140.713 14.4149C136.469 14.2082 132.151 14.5304 127.943 14.6626C124.57 14.7684 123.181 13.4411 120.182 12.3206C115.536 10.5894 110.637 9.50977 105.681 9.13467C105.587 9.66125 105.914 9.69972 106.287 9.8488C110.428 11.5127 114.703 12.4312 118.374 15.3142C118.528 15.4344 119.034 15.4873 118.677 15.86C118.547 15.9971 115.334 16.6439 114.965 16.5838C114.287 16.4756 111.807 15.081 110.794 14.7227C106.53 13.2151 102.238 12.6909 97.7344 13.2199V13.9389C101.637 14.4125 106.047 15.6821 109.048 18.2645C108.028 18.2381 106.518 19.2576 105.589 19.1614C104.999 19.1013 102.469 17.887 101.398 17.6129C98.8706 16.9661 95.8904 16.5958 93.2858 16.8267C92.9656 16.8555 89.5979 17.3701 90.2743 18.0241C93.3123 18.5362 97.4599 19.159 100.074 20.8542C100.305 21.0057 100.505 20.8277 100.382 21.388C99.6048 21.4793 98.8224 22.2368 98.0617 22.2776C96.8942 22.3426 93.7624 21.2461 92.087 21.1403C89.8386 20.996 87.8334 21.2028 85.6981 21.8737L90.7004 22.7657C91.1481 22.91 94.8673 24.0353 94.3618 24.7519C89.3403 27.5675 84.6486 31.1021 80.3974 34.971C77.7735 37.361 74.8703 41.1168 72.2175 43.1511C71.9768 43.3362 71.9118 43.6175 71.4954 43.5093C75.4264 12.9362 107.214 -5.15043 136.067 5.34038C141.433 7.29042 147.945 10.8707 151.972 14.9415C152.181 15.1531 152.499 15.1435 152.376 15.6172V15.6268Z" fill="#F8984F"/>
<path d="M2.1665 103.874L6.36715 80.2957L26.3569 80.3149C29.0916 80.666 32.156 81.5724 32.4978 84.7584C32.8035 87.6173 31.4771 91.1495 28.4055 91.8565C28.3574 92.6019 29.4719 92.5562 30.0906 93.1741C32.2884 95.3815 30.3987 101.244 27.7604 102.629C27.0213 103.018 24.2121 103.874 23.4706 103.874H2.1665ZM12.7584 89.9281H22.5077C24.4648 89.9281 25.979 85.6433 22.7605 85.3475C19.7418 85.071 16.3043 85.5759 13.2398 85.3571L12.7584 89.9281ZM11.0733 98.8247H21.7856C22.8712 98.8247 24.2265 95.4319 22.5703 94.6745C20.736 93.8354 14.4651 94.9486 12.1445 94.4822L11.7835 94.6505L11.0733 98.8247Z" fill="#FAFAFA"/>
<path d="M180.062 103.874L184.263 80.2957L203.771 80.3149C210.798 80.9016 210.851 85.9053 209.257 91.5583C208.521 94.1792 206.727 95.8215 204.127 96.5476L207.745 103.874H198.839L195.582 97.3892C195.456 97.1872 195.297 97.0189 195.062 96.9468C194.592 96.8049 189.677 96.841 189.438 97.0069C188.846 97.8052 188.466 103.874 187.888 103.874H180.064H180.062ZM190.413 92.0921C192.375 92.0296 194.359 92.169 196.321 92.1017C196.836 92.0849 197.274 91.8781 197.755 91.8492C198.684 91.7939 199.209 92.3013 200.456 91.6617C201.703 91.0221 202.575 86.8359 201.234 85.9727C200.519 85.5134 191.797 85.3884 191.362 85.701C191.003 86.4944 190.112 91.7891 190.413 92.0897V92.0921Z" fill="#FAFAFA"/>
<path d="M134.324 65.8832C133.219 65.5513 130.478 64.943 130.027 63.8009C129.871 63.4017 129.871 63.2262 130.355 63.2286C131.561 63.2358 133.205 63.635 134.445 63.7167C152.355 64.8925 170.26 65.9721 188.122 67.8092C202.486 69.2855 216.823 71.1875 231.091 73.3419C231.149 73.7603 230.544 73.5679 230.253 73.5799C228.467 73.6521 226.498 73.6328 224.704 73.5896C202.168 73.0461 179.626 72.6326 157.061 72.6278C151.206 71.476 144.144 73.4092 138.414 72.6181C137.875 72.5436 136.671 72.0747 136.517 71.4904C136.286 70.6176 137.745 70.6609 137.692 69.7328C138.638 69.8001 139.382 69.8313 140.34 69.9732C140.612 70.3964 141.404 70.6392 141.784 70.3339C141.592 70.0381 141.368 70.0309 141.062 69.9732C141.065 69.6221 141.199 69.3552 141.544 69.2519L142.986 69.6149C142.309 68.9561 141.407 68.4848 140.581 68.0496C138.229 66.8089 136.751 66.6141 134.322 65.8856L134.324 65.8832Z" fill="#118592"/>
<path d="M160.031 80.3799C163.132 80.0601 173.007 79.9134 175.722 80.6756C177.631 81.2118 179.27 82.4525 179.559 84.5372C179.956 87.4202 178.238 98.1298 176.557 100.491C174.964 102.73 171.976 103.653 169.348 103.869C165.905 104.151 155.768 104.261 152.865 103.028C151.199 102.321 150.4 101.227 150.217 99.4211C149.938 96.6871 151.435 87.728 152.576 85.1913C153.91 82.2217 156.897 80.7021 160.036 80.3799H160.031ZM162.672 85.903C161.473 86.0737 160.373 86.5306 159.916 87.7184C159.509 88.7716 158.467 94.8573 158.414 96.098C158.38 96.8723 158.7 97.5624 159.377 97.9639C160.318 98.5218 165.604 98.4737 166.938 98.3414C168.666 98.1683 169.595 97.6586 170.079 95.949C170.532 94.3476 171.312 89.993 171.389 88.3604C171.461 86.8335 171.22 86.0954 169.564 85.8621C168.093 85.6529 164.155 85.6914 162.667 85.903H162.672Z" fill="#FAFAFA"/>
<path d="M67.8819 44.7236C68.2382 45.1227 66.8853 49.2729 66.4881 49.9414C66.0356 50.706 65.2797 51.1532 64.7597 51.8217C61.9192 55.4717 58.8788 59.3213 57.2587 63.6854C39.6353 65.258 22.1755 68.1554 4.81445 71.4087L8.61309 69.3168C13.1435 67.2513 17.5392 64.8733 22.0576 62.7886C25.2592 61.3146 32.0813 57.7896 35.141 57.1019C37.3701 56.6018 40.6487 57.441 42.6684 56.9264C44.067 56.5705 48.7973 53.4327 50.5449 52.531C56.1707 49.6312 61.924 46.8756 67.8819 44.7236Z" fill="#FAFAFA"/>
<path d="M30.3313 103.874L44.8229 80.3606L57.2684 80.3342L62.8291 103.874H54.163L53.1688 99.5749C52.2324 99.6543 51.3345 99.2864 50.4342 99.2864C49.6422 99.2864 48.9634 99.5533 48.2749 99.5557C46.3178 99.5605 44.5172 99.2575 42.5336 99.5413L39.8375 103.874H30.3289H30.3313ZM45.2562 94.2562H52.2372L50.8699 87.5669L50.1935 85.8381L45.2562 94.2562Z" fill="#FAFAFA"/>
<path d="M119.159 103.874L123.285 80.3437L144.05 80.3365C146.767 80.8487 149.124 81.671 149.464 84.7848C149.668 86.6724 148.556 92.4816 147.526 94.0974C144.211 99.3104 133.831 97.1175 128.581 97.6561C128.191 97.9014 127.885 103.206 127.223 103.874H119.159ZM129.51 92.3325H138.778C140.395 92.3325 141.002 89.6323 141.072 88.3747C141.178 86.4656 141.043 85.7707 139.031 85.5879C136.315 85.3427 133.229 85.7971 130.473 85.6L129.51 92.3349V92.3325Z" fill="#FAFAFA"/>
<path d="M91.716 80.3101L90.9939 85.6H75.7078C74.1094 85.6 72.8553 88.9855 75.9678 89.428C79.4656 89.9257 86.6921 89.3246 89.2895 91.9912C91.119 93.8691 89.8865 99.3008 88.3387 101.104C87.0797 102.571 83.8371 103.874 81.9643 103.874H64.0303L64.7549 98.8271H80.0385C80.8305 98.6973 81.9402 98.4857 82.217 97.6369C83.0186 95.1963 81.2276 94.903 79.3115 94.7395C76.0569 94.463 68.3802 95.0978 66.5434 91.8637C65.282 89.642 66.529 84.3641 68.3561 82.5896C69.3575 81.6158 72.4388 80.3101 73.7772 80.3101H91.7112H91.716Z" fill="#FAFAFA"/>
<path d="M119.399 80.3101L118.677 85.6H103.15C102.159 85.6 100.854 87.9732 102.371 89.024C103.42 89.7502 107.207 89.5362 108.685 89.6901C111.234 89.957 116.593 90.2503 117.592 93.0563C118.369 95.2372 117.368 99.8082 115.666 101.467C114.556 102.549 111.152 103.874 109.65 103.874H91.7161C92.2168 102.54 92.0603 100.472 92.4792 99.2263C92.5442 99.0315 92.6188 98.9041 92.833 98.8584L107.727 98.8271C109.937 99.094 111.073 95.7734 109.058 95.0905C105.324 93.8258 98.8054 95.5378 95.2475 93.0155C92.5345 91.0919 93.873 84.6863 95.9191 82.7074C96.9229 81.736 100.129 80.3125 101.465 80.3125H119.399V80.3101Z" fill="#FAFAFA"/>
<path d="M164.656 18.2741L164.174 19.9573C164.018 19.9405 163.852 19.9693 163.693 19.9573C163.597 19.9501 163.113 19.2432 163.211 20.1977C160.585 20.7099 158.026 23.7396 156.712 25.9661L161.223 23.1408C162.121 22.7176 165.154 21.8713 165.859 22.607C166.442 23.2154 164.952 23.0567 164.774 23.0831C163.618 23.2587 165.376 23.8766 165.751 24.2758C167.925 26.5793 167.318 33.1027 166.285 35.8943C164.966 39.4577 163.127 37.3803 160.198 37.7505C159.865 37.7938 159.485 37.8924 159.841 38.229C160.053 38.4286 164.829 39.2293 165.575 39.3591C168.141 39.804 178.182 40.1623 176.889 44.5529C176.637 45.4137 170.939 48.2558 169.8 48.78C163.337 51.7447 154.906 54.5315 147.807 54.8249C145.694 54.9114 141.78 55.0821 139.864 54.5844C139.543 54.5027 139.228 54.3848 138.901 54.3416L139.312 53.916C146.674 53.6154 153.794 52.0212 160.691 49.5422C162.754 48.8016 171.899 45.1275 172.6 43.4035C172.799 42.9106 172.272 43.0621 172.005 43.0452C169.535 42.8817 167.094 42.687 164.651 42.2133C160.198 41.3525 155.929 39.5996 151.426 38.9504C151.707 37.272 151.637 35.5288 151.967 33.8553C152.557 30.8472 156.05 24.8552 157.819 22.1478C159.617 19.397 161.158 18.077 164.661 18.2814L164.656 18.2741Z" fill="#FAFAFA"/>
<path d="M238.558 80.3101L237.593 86.0785L229.035 86.3069L226.041 103.874H217.856L220.745 86.0809H211.838L212.801 80.3101H238.558Z" fill="#FAFAFA"/>
<path d="M262.871 93.7753C264.383 89.4472 268.813 86.8094 273.316 88.7523C277.154 90.4066 278.497 96.9468 275.389 99.546C275.026 99.8514 273.603 100.614 273.15 100.796C267.592 103.018 262.255 99.9981 262.871 93.7753ZM270.093 91.6112C270.059 91.7795 269.768 91.907 269.848 92.4191C270.033 93.6166 271.858 94.4918 272.825 93.7825C273.04 93.6262 272.96 93.3064 272.982 93.2944C273.309 93.1236 273.82 93.7079 273.694 92.7053C273.557 91.6112 271.369 90.1565 270.483 90.4234C269.944 90.5869 270.163 91.2553 270.093 91.6088V91.6112Z" fill="#6ED4C8"/>
<path d="M261.668 95.218C260.568 95.9609 259.453 96.8193 258.057 96.9035C257.927 97.5671 258.68 97.6032 259.02 97.8629C260.185 98.7622 261.444 99.51 262.626 100.388C262.631 100.604 261.68 100.893 261.427 100.989C260.457 101.354 257.441 102.02 256.853 102.431C256.882 102.285 256.81 102.054 256.853 101.951C256.913 101.806 257.267 101.645 257.291 101.323C257.337 100.717 253.729 96.3529 253.245 96.9011C253.052 97.4301 253.442 97.9783 253.483 98.3438C253.546 98.8944 253.351 99.4547 253.608 100.022C253.808 100.465 254.85 101.104 255.168 101.59L253.724 101.71C253.18 101.455 249.237 101.08 248.669 101.229C247.581 100.775 248.994 100.426 249.116 99.8586C249.196 99.4955 248.89 99.1782 248.9 98.9593C248.907 98.8055 249.388 98.8391 249.4 98.6876C249.429 98.339 248.974 97.7186 249.148 97.0598C249.196 96.8746 249.629 96.9059 249.636 96.7616C249.651 96.4226 249.251 95.9249 249.384 95.3743C249.427 95.1939 249.87 95.2228 249.877 95.0785C249.896 94.6914 249.48 94.148 249.634 93.4603C249.651 93.3785 249.937 93.3136 250.113 92.8111C250.414 91.9551 250.354 91.2553 250.597 90.409C250.192 90.3104 249.812 90.1998 249.391 90.1661L247.949 89.4424C247.937 89.0817 248.791 89.0312 249.059 88.9927C251.788 88.6008 257.484 87.7424 259.872 88.7138C262.756 89.8872 262.775 92.7149 261.668 95.2155V95.218ZM253.724 92.8135C253.717 92.8736 253.507 93.0828 253.476 93.4002C253.343 94.6673 254.075 95.1314 254.927 94.2562C256.16 92.9914 254.971 91.9623 253.726 91.3708C253.678 91.8348 253.784 92.3638 253.726 92.8135H253.724Z" fill="#6ED4C8"/>
<path d="M247.706 90.409C247.739 90.4354 247.718 90.7384 247.946 90.8899C248.673 93.1838 248.462 94.5279 247.465 96.6607C246.115 98.1779 244.071 98.6011 242.106 98.2861C241.184 98.137 240.433 97.4638 239.521 97.3844C239.42 97.4782 239.909 98.7742 240.003 99.0652C240.096 99.3561 239.844 99.6783 240.246 100.142C240.624 100.578 242.066 101.176 242.648 101.474L240.725 101.953C238.76 101.131 236.782 101.383 234.707 100.991C233.58 101.061 235.145 100.275 235.193 99.6639C235.224 99.2647 234.89 98.8295 234.933 98.4953C234.955 98.3366 235.352 98.3751 235.41 98.1899C235.496 97.9182 235.205 97.019 235.227 96.7713C235.239 96.6294 235.669 96.6775 235.679 96.526C235.698 96.2399 235.354 95.6556 235.4 95.0881C235.436 94.6337 235.891 94.7539 235.884 94.6337C235.857 94.2273 235.535 93.8594 235.672 93.2223C235.691 93.1357 235.975 93.0852 236.151 92.573C236.543 91.4261 236.866 90.3248 235.429 90.1685L233.746 89.2092C237.244 89.1514 242.764 87.2399 245.951 88.9182C246.533 89.226 247.133 89.9497 247.708 90.409H247.706ZM241.206 92.3326C241.738 91.3732 242.294 90.0772 240.628 90.1806C239.377 90.2599 239.923 90.7649 239.762 91.3708C239.55 92.1643 239.16 92.9097 239.283 93.7729C240.313 93.7849 240.775 93.1092 241.206 92.3326Z" fill="#6ED4C8"/>
<path d="M139.861 55.0629C142.535 55.224 145.106 55.3875 147.805 55.3034C148.611 55.2793 149.293 55.0918 150.08 55.0509C150.361 55.0365 151.413 54.8826 151.413 55.301L133.725 59.3934C133.224 58.8693 135.244 57.8401 134.806 57.4674C130.203 57.4987 125.562 58.3643 120.962 58.1864C120.67 58.1743 120.066 58.3667 120.124 57.9483L127.584 55.7771C127.943 55.4284 127.558 55.3443 127.225 55.301C126.424 55.2 125.519 55.2433 124.698 55.0557L126.756 54.1108C131.137 54.0651 135.487 54.7936 139.861 55.0581V55.0629Z" fill="#FAFAFA"/>
<path d="M37.7937 67.3258V69.4899C36.7249 69.2134 35.4491 69.0475 35.1458 70.4517C29.2095 71.5097 23.6945 74.169 17.2431 72.8249L11.0757 71.6563C19.8862 69.7231 28.8484 68.5016 37.7937 67.3258Z" fill="#128896"/>
<path d="M164.656 18.2742C168.483 18.4978 170.826 22.3113 171.15 25.8531C171.278 27.2381 171.016 34.2929 170.188 35.1056C170.171 35.1224 169.68 35.1946 169.713 34.9902C169.947 34.4275 170.101 33.6341 170.159 33.0305C170.546 29.1401 170.647 21.5996 165.963 20.2122C165.286 20.0126 164.819 20.0318 164.172 19.9573L164.653 18.2742H164.656Z" fill="#FAFAFA"/>
<path d="M262.871 93.7753C262.255 99.9981 267.59 103.018 273.15 100.796C273.603 100.616 275.026 99.8514 275.389 99.5461C272.558 104.254 264.508 103.934 262.619 98.4761C261.87 96.3144 262.178 95.7566 262.871 93.7753Z" fill="#0B1010"/>
<path d="M47.4203 74.5417C47.4781 74.9601 46.8739 74.7677 46.5826 74.7798C42.7551 74.924 38.5809 74.7485 34.7799 74.3013C34.4236 74.2604 34.0553 74.1209 34.4236 73.8204C39.0335 72.4739 42.9982 72.6999 47.4228 74.5441L47.4203 74.5417Z" fill="#128896"/>
<path d="M232.781 100.748C231.139 101.501 229.623 101.465 228.207 100.267C228.272 100.152 228.128 99.5484 228.246 99.231C228.754 97.8749 233.725 97.8773 233.217 100.089C233.161 100.332 232.868 100.541 232.781 100.748Z" fill="#6ED4C8"/>
<path d="M240.725 101.951C241.204 102.15 241.931 102.417 242.169 102.91C239.663 102.79 237.095 102.696 234.606 102.407C232.819 102.201 234.206 101.672 234.707 100.989C236.782 101.381 238.761 101.128 240.725 101.951Z" fill="#0B1010"/>
<path d="M240.003 99.0652C239.909 98.7742 239.42 97.4782 239.521 97.3844C240.434 97.4638 241.185 98.137 242.107 98.2861C244.069 98.6011 246.115 98.1779 247.465 96.6607C245.913 99.9813 243.245 100.051 240.003 99.0652Z" fill="#0B1010"/>
<path d="M134.324 66.1236C134.548 66.1885 134.921 66.4963 135.287 66.6045V68.2876C134.202 68.1963 133.015 68.3574 131.917 68.2876C132.119 67.7226 131.337 67.7851 131.214 67.4148C131.055 66.9291 131.551 66.1957 131.436 65.6427C132.305 65.8856 133.525 65.8904 134.324 66.1236Z" fill="#118592"/>
<path d="M253.724 101.71C253.801 101.746 254.923 102.713 254.684 102.91C252.357 102.871 250.007 102.544 247.706 102.186C247.624 102.076 248.568 101.253 248.669 101.227C249.237 101.078 253.18 101.453 253.724 101.708V101.71Z" fill="#0B1010"/>
<path d="M256.853 101.951L253.483 98.3438C253.442 97.9807 253.052 97.4301 253.245 96.9011C253.729 96.3505 257.337 100.717 257.292 101.323C257.268 101.645 256.916 101.806 256.853 101.951Z" fill="#0B1010"/>
<path d="M228.207 100.267C229.623 101.465 231.139 101.501 232.781 100.748C232.721 100.893 232.81 101.196 232.656 101.455C231.635 103.172 227.117 102.679 227.721 100.426C227.788 100.174 228.195 100.291 228.21 100.267H228.207Z" fill="#0B1010"/>
<path d="M261.427 100.989C261.559 101.217 262.431 101.472 261.913 101.835C261.629 102.032 257.308 103.48 256.716 103.619C255.984 103.792 256.629 102.588 256.853 102.431C257.441 102.02 260.457 101.354 261.427 100.989Z" fill="#0B1010"/>
<path d="M249.391 90.1685C249.812 90.2022 250.192 90.3152 250.597 90.4114C250.356 91.2578 250.414 91.9575 250.113 92.8135C249.692 92.6235 249.997 91.9286 249.829 91.6521C249.711 91.4573 248.214 91.0678 247.947 90.8899C247.718 90.7384 247.74 90.4354 247.706 90.409C248.007 90.0267 248.9 90.1277 249.391 90.1685Z" fill="#0B1010"/>
<path d="M147.805 54.8225V55.3034C145.106 55.3875 142.536 55.224 139.861 55.0629V54.582C141.777 55.0798 145.691 54.909 147.805 54.8225Z" fill="#6ED4C8"/>
<path d="M235.429 90.1685C236.866 90.3248 236.543 91.4261 236.151 92.573C235.797 92.3566 236.047 91.8613 235.759 91.5872C235.47 91.3131 233.517 90.9476 233.508 90.5292C233.498 90.0772 235.082 90.1301 235.429 90.1685Z" fill="#0B1010"/>
<path d="M259.02 97.8629C258.68 97.6008 257.927 97.5647 258.057 96.9035C259.453 96.8218 260.568 95.9609 261.668 95.218C261.042 96.6342 260.467 97.2065 259.02 97.8629Z" fill="#0B1010"/>
<path d="M140.583 68.0472V68.2876C139.115 67.5735 136.888 67.0806 135.287 66.6045C134.921 66.4963 134.548 66.1885 134.324 66.1236V65.8831C136.753 66.6117 138.231 66.8065 140.583 68.0472Z" fill="#EDEEF0"/>
<path d="M163.693 19.9573C163.623 20.2026 163.406 20.1593 163.211 20.1978C163.113 19.2432 163.597 19.9501 163.693 19.9573Z" fill="#18283D"/>
<path d="M133.359 21.4024L119.635 23.9223C110.014 26.3364 100.392 30.0634 91.8822 35.1537C89.3113 36.6902 86.957 38.6763 84.2537 39.9146L85.1492 39.3664C86.3865 37.8684 88.3291 36.5435 89.954 35.3942C99.3086 28.7698 109.811 24.8144 121.077 22.7201C125.119 21.9699 129.238 21.299 133.359 21.4048V21.4024Z" fill="#1C365D"/>
<path d="M140.424 26.1272C137.601 23.1865 143.318 19.4571 145.126 22.9941C146.678 26.0286 142.555 28.349 140.424 26.1272ZM142.673 22.9052C140.586 22.9845 140.679 26.5841 142.853 26.447C145.092 26.3051 144.495 22.8355 142.673 22.9052Z" fill="#EDEEF0"/>
<path d="M110.25 48.5708C110.714 48.9507 109.889 49.0878 109.771 49.1647C107.833 50.4487 104.708 51.8385 102.549 50.3717C103.61 50.266 104.631 50.1169 105.681 49.8957C106.451 49.7322 110.067 48.4217 110.25 48.5708Z" fill="#1C365D"/>
<path d="M114.823 39.1933V40.8764L112.659 39.7944L114.823 39.1933Z" fill="#EDEEF0"/>
<path d="M98.4563 41.1193C98.7163 43.5526 101.86 42.6533 103.63 42.8024C105.596 42.9659 107.573 43.2809 109.527 43.5238L101.222 44.4784C100.336 44.4687 98.7885 44.6611 98.1025 43.9951C97.8136 43.7137 96.2441 40.8716 96.2754 40.5182C96.3428 39.7391 98.6706 39.3856 99.3687 39.2654C103.897 38.4815 109.664 38.9095 113.136 42.2037C108.398 40.9077 103.331 39.9579 98.4563 41.1217V41.1193Z" fill="#1C365D"/>
<path d="M131.917 68.2876C133.015 68.3573 134.202 68.1962 135.287 68.2876C135.896 68.3381 137.591 68.6074 138.176 68.7685C138.263 69.0017 138.424 69.1628 138.658 69.2494C139.281 69.4826 140.152 69.3913 140.583 69.9708C140.506 69.9563 140.422 69.9828 140.343 69.9708C139.385 69.8289 138.641 69.7976 137.695 69.7303C133.829 69.4514 130.04 69.7327 126.263 69.4874C123.706 69.3215 120.931 68.5737 118.326 68.5184C115.692 68.4631 112.989 68.9392 110.382 69.0186C107.941 69.0931 105.44 69.0883 103.03 68.7661L115.418 66.5948C121.092 66.6838 126.188 67.9293 131.917 68.2876Z" fill="#F0F7F8"/>
<path d="M92.1976 69.4923C92.1061 69.9299 91.7233 69.9396 91.3646 69.9804C88.2256 70.3315 84.2296 70.1632 80.9942 70.2233C75.135 70.3315 69.6946 72.1204 63.6596 71.666C63.248 71.6347 62.8628 71.6924 62.5908 71.2909C64.7646 70.6874 67.1429 70.7691 69.3841 70.3844C72.9709 69.7688 76.9284 67.8068 80.4935 68.0785C82.7515 68.2516 85.385 68.9826 87.749 69.2471C89.2126 69.4106 90.7267 69.4947 92.2 69.4923H92.1976Z" fill="#F0F7F8"/>
<path d="M62.3453 71.1754C63.1855 71.8078 60.0922 71.6852 59.9405 71.6515C59.8876 71.3101 60.6097 71.274 60.848 71.2404C61.3488 71.1706 61.8398 71.1346 62.3453 71.173V71.1754Z" fill="#6ED4C8"/>
<path d="M140.583 68.2876C140.721 68.355 141.351 69.0643 141.546 69.2494C141.202 69.3528 141.067 69.6197 141.065 69.9708C140.918 69.9419 140.733 69.9972 140.583 69.9708C140.152 69.3913 139.281 69.4827 138.658 69.2494C138.573 69.0258 138.412 68.8335 138.176 68.7685C137.591 68.6074 135.896 68.3381 135.287 68.2876V66.6045C136.888 67.0806 139.115 67.5735 140.583 68.2876Z" fill="#108491"/>
<path d="M140.583 68.0472C141.409 68.4824 142.312 68.9537 142.988 69.6125L141.546 69.2494C141.351 69.0643 140.72 68.355 140.583 68.2876V68.0472Z" fill="#6ED4C8"/>
<path d="M141.065 69.9708C141.37 70.0309 141.592 70.0381 141.787 70.3315C141.409 70.6345 140.617 70.394 140.343 69.9708C140.422 69.9828 140.506 69.9564 140.583 69.9708C140.733 69.9973 140.918 69.942 141.065 69.9708Z" fill="#EDEEF0"/>
<path d="M270.093 91.6113C270.165 91.2578 269.944 90.587 270.483 90.4259C271.369 90.159 273.557 91.6113 273.694 92.7077C273.82 93.7104 273.309 93.1261 272.982 93.2968C272.373 92.335 271.229 91.669 270.093 91.6137V91.6113Z" fill="#0B1010"/>
<path d="M254.928 94.2562C254.863 93.4964 254.434 93.0371 253.724 92.8135C253.784 92.3638 253.678 91.8349 253.724 91.3708C254.969 91.9623 256.158 92.9914 254.925 94.2562H254.928Z" fill="#0B1010"/>
<path d="M241.206 92.3326C241.334 91.289 240.609 91.2986 239.762 91.3708C239.923 90.7672 239.379 90.2599 240.629 90.1805C242.294 90.0747 241.738 91.3732 241.206 92.3326Z" fill="#0B1010"/>
<path d="M142.673 22.9052C144.493 22.8355 145.09 26.3051 142.853 26.447C140.68 26.5841 140.588 22.9845 142.673 22.9052Z" fill="#182A41"/>
<path d="M138.657 69.2495C138.424 69.1629 138.263 69.0018 138.176 68.7686C138.412 68.8335 138.573 69.0258 138.657 69.2495Z" fill="#118592"/>
</svg>
